<?xml version="1.0" encoding="utf-8"?>
<!-- Generator: Adobe Illustrator 16.0.0, SVG Export Plug-In . SVG Version: 6.00 Build 0)  -->
<!DOCTYPE svg PUBLIC "-//W3C//DTD SVG 1.1//EN" "http://www.w3.org/Graphics/SVG/1.1/DTD/svg11.dtd">
<svg version="1.1" xmlns="http://www.w3.org/2000/svg" xmlns:xlink="http://www.w3.org/1999/xlink" x="0px" y="0px" width="500px"
	 height="500px" viewBox="0 0 500 500" enable-background="new 0 0 500 500" xml:space="preserve">
<g id="Calque_1">
	<rect y="-520" fill="#F4F4F4" width="500" height="500"/>
	<g>
		<circle id="XMLID_10_" fill="#040405" cx="198.039" cy="-240.486" r="14.011"/>
		<circle id="XMLID_9_" fill="#040405" cx="301.96" cy="-240.486" r="14.011"/>
		<path fill="#040405" d="M153.668-159.58c-2.305,0-4.196-1.844-4.244-4.159c-0.048-2.345,1.813-4.284,4.158-4.333l0.387-0.009
			c2.329-0.073,4.3,1.776,4.369,4.12c0.068,2.344-1.776,4.299-4.12,4.369l-0.462,0.012
			C153.727-159.58,153.698-159.58,153.668-159.58z"/>
		<path fill="#040405" d="M261.688-225.194c-2.191-4.806-9.923-4.01-11.688,1.526c-1.765-5.536-9.499-6.332-11.689-1.526
			c-3.664,8.04-7.571,6.44-7.571,6.44c13.407,5.703,18.055,2.836,19.26-0.293c1.206,3.129,5.853,5.996,19.258,0.293
			C269.259-218.754,265.352-217.154,261.688-225.194z"/>
		<path fill="#040405" d="M345.592-264.77c-0.75-0.289-1.547-0.436-2.367-0.436c-0.046,0-0.092,0.011-0.138,0.012
			c-0.879-32.449-19.146-42.261-44.375-45.098v-16.749l12.368-14.436v-23.045c3.109-1.56,5.249-4.769,5.249-8.484
			c0-5.244-4.25-9.495-9.495-9.495s-9.495,4.251-9.495,9.495c0,3.715,2.14,6.924,5.249,8.484v19.905l-12.367,14.435v19.191
			c-4.216-0.238-8.579-0.344-13.046-0.38v-31.285c3.11-1.56,5.25-4.769,5.25-8.484c0-5.243-4.251-9.495-9.496-9.495
			c-5.244,0-9.495,4.251-9.495,9.495c0,3.715,2.14,6.924,5.25,8.484v31.284c-2.198,0.012-4.417,0.028-6.672,0.046
			c-7.858,0.064-16.168,0.064-24.021,0c-3.793-0.031-7.511-0.062-11.137-0.062c-37.568,0-68.784,3.531-69.94,46.192
			c-0.046-0.001-0.092-0.012-0.138-0.012c-0.82,0-1.617,0.146-2.368,0.436c-7.783,3-11.461,23.393-4.699,40.943
			c6.509,16.89,21.122,27.667,28.321,27.667c0.948,0,1.835-0.157,2.637-0.466c0.912-0.352,1.673-0.871,2.313-1.521
			c9.13,9.471,20.238,17.019,32.657,21.968c0.162,8.166,3.301,16.506,10.38,18.25c1.154,0.285,2.376,0.428,3.633,0.428
			c0,0,0.001,0,0.001,0c4.369,0,8.806-1.741,12.617-3.885c2.13,1.183,4.577,1.863,7.182,1.863c2.828,0,5.463-0.809,7.715-2.187
			c3.935,2.291,8.599,4.209,13.187,4.209c1.256,0,2.479-0.144,3.633-0.428c7.078-1.745,10.218-10.082,10.38-18.247
			c12.42-4.949,23.528-12.498,32.657-21.971c0.639,0.65,1.4,1.168,2.312,1.52c0.802,0.309,1.688,0.466,2.636,0.466
			c0.001,0,0.001,0,0.002,0c7.2,0,21.812-10.778,28.32-27.668C357.054-241.377,353.376-261.77,345.592-264.77z M177.104-204.818
			c-3.981-1.206-14.409-8.924-19.473-22.063c-5.003-12.989-2.638-25.394-0.506-29.204c1.364,19.286,8.618,36.967,19.982,51.247
			C177.107-204.831,177.106-204.824,177.104-204.818z M175.293-240.486c0-12.542,10.204-22.745,22.746-22.745
			s22.746,10.203,22.746,22.745c0,12.542-10.204,22.746-22.746,22.746S175.293-227.944,175.293-240.486z M236.161-167.795
			c-2.223,1.068-4.489,1.804-6.511,1.804c-0.573,0-1.112-0.062-1.603-0.183c-2.081-0.512-4.198-5.49-3.909-11.813
			c0.255-5.594,2.249-8.969,3.53-9.163c0.214-0.032,0.445-0.048,0.686-0.048c2.58,0,5.946,1.701,9.217,3.972
			c-1.852,2.477-2.963,5.538-2.963,8.861C234.608-172.004,235.176-169.779,236.161-167.795z M249.466-167.809
			c-3.623,0-6.56-2.938-6.56-6.56c0-3.622,2.937-6.559,6.56-6.559c3.623,0,6.559,2.937,6.559,6.559
			C256.025-170.746,253.089-167.809,249.466-167.809z M271.954-166.174c-0.491,0.121-1.03,0.183-1.602,0.183
			c-2.308,0-4.908-0.935-7.403-2.234c0.855-1.874,1.346-3.948,1.346-6.139c0-3.096-0.956-5.971-2.583-8.352
			c3.493-2.522,7.167-4.481,9.936-4.481c0.242,0,0.473,0.016,0.687,0.048c1.28,0.194,3.275,3.569,3.53,9.163
			C276.151-171.664,274.034-166.686,271.954-166.174z M283.362-184.956c-1.629-5.991-5.107-9.885-9.757-10.589
			c-0.633-0.096-1.292-0.145-1.958-0.145c-5.783,0-12.036,3.777-16.806,7.51c-1.674-0.655-3.487-1.029-5.391-1.029
			c-1.622,0-3.181,0.272-4.643,0.755c-4.723-3.642-10.811-7.237-16.453-7.237c-0.666,0-1.325,0.049-1.958,0.145
			c-4.649,0.705-8.128,4.599-9.757,10.589c-5.909-2.545-11.47-5.742-16.596-9.504c0.07-0.228,0.14-0.455,0.207-0.684
			c0.658-2.25-0.633-4.608-2.883-5.267c-1.355-0.396-2.743-0.076-3.781,0.725c-5.01-4.488-9.474-9.57-13.302-15.122
			c3.926,2.723,8.501,4.567,13.445,5.253l0.001,0.084c0.027,2.327,1.923,4.196,4.244,4.196c0.017,0,0.034,0,0.051,0
			c2.333-0.027,4.202-1.933,4.193-4.263c15.254-2.049,27.059-15.142,27.059-30.949c0-17.224-14.014-31.236-31.238-31.236
			c-15.581,0-28.533,11.467-30.862,26.405c-1.178-5.617-1.81-11.433-1.81-17.395c0-34.382,18.968-40.183,61.486-40.183
			c3.604,0,7.297,0.031,11.067,0.062c7.899,0.065,16.257,0.065,24.16,0c3.771-0.031,7.465-0.062,11.067-0.062
			c42.518,0,61.485,5.801,61.485,40.183C334.633-227.889,313.483-197.928,283.362-184.956z M342.369-226.881
			c-5.065,13.141-15.493,20.859-19.474,22.063c0-0.006-0.001-0.014-0.002-0.02c11.363-14.28,18.62-31.958,19.984-51.243
			C345.008-252.268,347.371-239.867,342.369-226.881z"/>
		<path fill="#040405" d="M169.695-167.328c-2.304,0-4.195-1.844-4.243-4.159c-0.048-2.345,1.814-4.284,4.158-4.332l0.388-0.01
			c2.328-0.073,4.299,1.775,4.369,4.12c0.068,2.344-1.776,4.3-4.12,4.369l-0.462,0.011
			C169.755-167.329,169.726-167.328,169.695-167.328z"/>
		<path fill="#040405" d="M184.874-177.942c-2.304,0-4.196-1.844-4.243-4.159c-0.048-2.345,1.814-4.284,4.158-4.332l0.388-0.01
			c2.328-0.073,4.299,1.775,4.368,4.12c0.069,2.343-1.776,4.299-4.12,4.369l-0.462,0.011
			C184.934-177.943,184.904-177.942,184.874-177.942z"/>
	</g>
</g>
<g id="Calque_2">
	<rect x="520" y="-520" fill="#040405" width="500" height="500"/>
	<g>
		<circle id="XMLID_2_" fill="#F4F4F4" cx="718.039" cy="-240.486" r="14.011"/>
		<circle id="XMLID_1_" fill="#F4F4F4" cx="821.96" cy="-240.486" r="14.011"/>
		<path fill="#F4F4F4" d="M673.668-159.58c-2.305,0-4.195-1.844-4.243-4.159c-0.048-2.345,1.813-4.284,4.158-4.333l0.387-0.009
			c2.329-0.073,4.3,1.776,4.368,4.12c0.068,2.344-1.775,4.299-4.119,4.369l-0.462,0.012
			C673.727-159.58,673.697-159.58,673.668-159.58z"/>
		<path fill="#F4F4F4" d="M781.688-225.194c-2.191-4.806-9.923-4.01-11.688,1.526c-1.765-5.536-9.498-6.332-11.689-1.526
			c-3.663,8.04-7.57,6.44-7.57,6.44c13.406,5.703,18.055,2.836,19.26-0.293c1.206,3.129,5.854,5.996,19.259,0.293
			C789.259-218.754,785.352-217.154,781.688-225.194z"/>
		<path fill="#F4F4F4" d="M865.592-264.77c-0.75-0.289-1.547-0.436-2.367-0.436c-0.045,0-0.092,0.011-0.138,0.012
			c-0.88-32.449-19.146-42.261-44.375-45.098v-16.749l12.368-14.436v-23.045c3.109-1.56,5.248-4.769,5.248-8.484
			c0-5.244-4.25-9.495-9.494-9.495c-5.245,0-9.496,4.251-9.496,9.495c0,3.715,2.141,6.924,5.25,8.484v19.905l-12.367,14.435v19.191
			c-4.217-0.238-8.58-0.344-13.047-0.38v-31.285c3.11-1.56,5.25-4.769,5.25-8.484c0-5.243-4.251-9.495-9.496-9.495
			c-5.244,0-9.494,4.251-9.494,9.495c0,3.715,2.14,6.924,5.249,8.484v31.284c-2.198,0.012-4.417,0.028-6.672,0.046
			c-7.858,0.064-16.168,0.064-24.021,0c-3.793-0.031-7.512-0.062-11.137-0.062c-37.568,0-68.785,3.531-69.941,46.192
			c-0.045-0.001-0.092-0.012-0.137-0.012c-0.82,0-1.617,0.146-2.368,0.436c-7.783,3-11.461,23.393-4.699,40.943
			c6.509,16.89,21.122,27.667,28.321,27.667c0.947,0,1.835-0.157,2.637-0.466c0.912-0.352,1.674-0.871,2.313-1.521
			c9.131,9.471,20.238,17.019,32.657,21.968c0.161,8.166,3.302,16.506,10.38,18.25c1.154,0.285,2.377,0.428,3.633,0.428
			c0.001,0,0.002,0,0.002,0c4.369,0,8.806-1.741,12.617-3.885c2.131,1.183,4.577,1.863,7.182,1.863c2.828,0,5.464-0.809,7.715-2.187
			c3.936,2.291,8.6,4.209,13.188,4.209c1.256,0,2.479-0.144,3.633-0.428c7.078-1.745,10.219-10.082,10.381-18.247
			c12.42-4.949,23.527-12.498,32.656-21.971c0.639,0.65,1.4,1.168,2.313,1.52c0.801,0.309,1.688,0.466,2.636,0.466
			c0.001,0,0.001,0,0.001,0c7.201,0,21.813-10.778,28.321-27.668C877.054-241.377,873.376-261.77,865.592-264.77z M697.104-204.818
			c-3.981-1.206-14.409-8.924-19.474-22.063c-5.003-12.989-2.638-25.394-0.506-29.204c1.363,19.286,8.618,36.967,19.982,51.247
			C697.107-204.831,697.105-204.824,697.104-204.818z M695.293-240.486c0-12.542,10.204-22.745,22.746-22.745
			s22.746,10.203,22.746,22.745c0,12.542-10.204,22.746-22.746,22.746S695.293-227.944,695.293-240.486z M756.16-167.795
			c-2.223,1.068-4.488,1.804-6.51,1.804c-0.573,0-1.112-0.062-1.604-0.183c-2.08-0.512-4.197-5.49-3.908-11.813
			c0.254-5.594,2.248-8.969,3.529-9.163c0.214-0.032,0.445-0.048,0.686-0.048c2.58,0,5.946,1.701,9.217,3.972
			c-1.852,2.477-2.963,5.538-2.963,8.861C754.607-172.004,755.176-169.779,756.16-167.795z M769.467-167.809
			c-3.623,0-6.561-2.938-6.561-6.56c0-3.622,2.938-6.559,6.561-6.559s6.559,2.937,6.559,6.559
			C776.025-170.746,773.09-167.809,769.467-167.809z M791.953-166.174c-0.49,0.121-1.029,0.183-1.602,0.183
			c-2.308,0-4.908-0.935-7.403-2.234c0.855-1.874,1.346-3.948,1.346-6.139c0-3.096-0.956-5.971-2.583-8.352
			c3.492-2.522,7.166-4.481,9.936-4.481c0.242,0,0.473,0.016,0.687,0.048c1.28,0.194,3.274,3.569,3.53,9.163
			C796.151-171.664,794.034-166.686,791.953-166.174z M803.361-184.956c-1.629-5.991-5.106-9.885-9.756-10.589
			c-0.634-0.096-1.293-0.145-1.959-0.145c-5.783,0-12.036,3.777-16.807,7.51c-1.674-0.655-3.486-1.029-5.391-1.029
			c-1.621,0-3.18,0.272-4.643,0.755c-4.723-3.642-10.811-7.237-16.453-7.237c-0.666,0-1.324,0.049-1.957,0.145
			c-4.649,0.705-8.129,4.599-9.758,10.589c-5.908-2.545-11.47-5.742-16.596-9.504c0.07-0.228,0.14-0.455,0.207-0.684
			c0.658-2.25-0.633-4.608-2.884-5.267c-1.354-0.396-2.743-0.076-3.781,0.725c-5.01-4.488-9.474-9.57-13.302-15.122
			c3.926,2.723,8.502,4.567,13.445,5.253l0.002,0.084c0.027,2.327,1.922,4.196,4.244,4.196c0.017,0,0.033,0,0.051,0
			c2.333-0.027,4.201-1.933,4.193-4.263c15.254-2.049,27.059-15.142,27.059-30.949c0-17.224-14.014-31.236-31.238-31.236
			c-15.581,0-28.533,11.467-30.862,26.405c-1.179-5.617-1.81-11.433-1.81-17.395c0-34.382,18.969-40.183,61.486-40.183
			c3.604,0,7.297,0.031,11.066,0.062c7.899,0.065,16.258,0.065,24.16,0c3.771-0.031,7.465-0.062,11.067-0.062
			c42.518,0,61.485,5.801,61.485,40.183C854.633-227.889,833.482-197.928,803.361-184.956z M862.369-226.881
			c-5.065,13.141-15.493,20.859-19.475,22.063c0-0.006-0.001-0.014-0.002-0.02c11.363-14.28,18.62-31.958,19.984-51.243
			C865.008-252.268,867.371-239.867,862.369-226.881z"/>
		<path fill="#F4F4F4" d="M689.695-167.328c-2.304,0-4.195-1.844-4.242-4.159c-0.049-2.345,1.813-4.284,4.157-4.332l0.388-0.01
			c2.328-0.073,4.299,1.775,4.369,4.12c0.068,2.344-1.777,4.3-4.12,4.369l-0.462,0.011
			C689.755-167.329,689.726-167.328,689.695-167.328z"/>
		<path fill="#F4F4F4" d="M704.874-177.942c-2.304,0-4.196-1.844-4.243-4.159c-0.047-2.345,1.814-4.284,4.158-4.332l0.388-0.01
			c2.327-0.073,4.3,1.775,4.368,4.12c0.068,2.343-1.775,4.299-4.119,4.369l-0.463,0.011
			C704.934-177.943,704.904-177.942,704.874-177.942z"/>
	</g>
</g>
<g id="Calque_5">
	<rect x="520" fill="#7A1C22" width="500" height="500"/>
	<g>
		<g>
			<circle id="XMLID_26_" fill="#D9C590" cx="718.039" cy="279.514" r="14.011"/>
			<circle id="XMLID_25_" fill="#D9C590" cx="821.96" cy="279.514" r="14.011"/>
			<path fill="#D9C590" d="M673.668,360.42c-2.305,0-4.195-1.844-4.243-4.158c-0.048-2.345,1.813-4.283,4.158-4.332l0.387-0.01
				c2.329-0.072,4.3,1.775,4.368,4.119c0.068,2.345-1.775,4.3-4.119,4.369l-0.462,0.012
				C673.727,360.42,673.697,360.42,673.668,360.42z"/>
			<path fill="#D9C590" d="M781.688,294.806c-2.191-4.806-9.923-4.01-11.688,1.526c-1.765-5.536-9.498-6.332-11.689-1.526
				c-3.663,8.04-7.57,6.44-7.57,6.44c13.406,5.703,18.055,2.836,19.26-0.293c1.206,3.129,5.854,5.996,19.259,0.293
				C789.259,301.246,785.352,302.846,781.688,294.806z"/>
			<path fill="#D9C590" d="M865.592,255.23c-0.75-0.289-1.547-0.436-2.367-0.436c-0.045,0-0.092,0.01-0.138,0.012
				c-0.88-32.449-19.146-42.262-44.375-45.098V192.96l12.368-14.437v-23.045c3.109-1.559,5.248-4.768,5.248-8.483
				c0-5.243-4.25-9.495-9.494-9.495c-5.245,0-9.496,4.252-9.496,9.495c0,3.716,2.141,6.925,5.25,8.483v19.905l-12.367,14.435v19.191
				c-4.217-0.238-8.58-0.344-13.047-0.381v-31.284c3.11-1.56,5.25-4.769,5.25-8.483c0-5.244-4.251-9.495-9.496-9.495
				c-5.244,0-9.494,4.251-9.494,9.495c0,3.715,2.14,6.924,5.249,8.483v31.284c-2.198,0.012-4.417,0.027-6.672,0.047
				c-7.858,0.064-16.168,0.064-24.021,0c-3.793-0.031-7.512-0.063-11.137-0.063c-37.568,0-68.785,3.531-69.941,46.193
				c-0.045-0.002-0.092-0.012-0.137-0.012c-0.82,0-1.617,0.146-2.368,0.436c-7.783,3-11.461,23.393-4.699,40.942
				c6.509,16.89,21.122,27.667,28.321,27.667c0.947,0,1.835-0.156,2.637-0.465c0.912-0.352,1.674-0.871,2.313-1.521
				c9.131,9.471,20.238,17.019,32.657,21.968c0.161,8.166,3.302,16.506,10.38,18.251c1.154,0.284,2.377,0.428,3.633,0.428
				c0.001,0,0.002,0,0.002,0c4.369,0,8.806-1.74,12.617-3.885c2.131,1.184,4.577,1.863,7.182,1.863c2.828,0,5.464-0.809,7.715-2.188
				c3.936,2.291,8.6,4.209,13.188,4.209c1.256,0,2.479-0.144,3.633-0.428c7.078-1.745,10.219-10.082,10.381-18.247
				c12.42-4.949,23.527-12.498,32.656-21.971c0.639,0.649,1.4,1.169,2.313,1.521c0.801,0.309,1.688,0.465,2.636,0.465
				c0.001,0,0.001,0,0.001,0c7.201,0,21.813-10.777,28.321-27.668C877.054,278.623,873.376,258.23,865.592,255.23z M697.104,315.182
				c-3.981-1.205-14.409-8.924-19.474-22.063c-5.003-12.988-2.638-25.393-0.506-29.203c1.363,19.286,8.618,36.967,19.982,51.247
				C697.107,315.169,697.105,315.176,697.104,315.182z M695.293,279.514c0-12.542,10.204-22.744,22.746-22.744
				s22.746,10.202,22.746,22.744c0,12.543-10.204,22.746-22.746,22.746S695.293,292.057,695.293,279.514z M756.16,352.205
				c-2.223,1.068-4.488,1.804-6.51,1.804c-0.573,0-1.112-0.062-1.604-0.183c-2.08-0.512-4.197-5.49-3.908-11.813
				c0.254-5.594,2.248-8.969,3.529-9.163c0.214-0.032,0.445-0.048,0.686-0.048c2.58,0,5.946,1.7,9.217,3.972
				c-1.852,2.477-2.963,5.538-2.963,8.86C754.607,347.996,755.176,350.221,756.16,352.205z M769.467,352.191
				c-3.623,0-6.561-2.938-6.561-6.561c0-3.621,2.938-6.559,6.561-6.559s6.559,2.938,6.559,6.559
				C776.025,349.254,773.09,352.191,769.467,352.191z M791.953,353.826c-0.49,0.121-1.029,0.183-1.602,0.183
				c-2.308,0-4.908-0.935-7.403-2.234c0.855-1.874,1.346-3.948,1.346-6.14c0-3.096-0.956-5.971-2.583-8.352
				c3.492-2.522,7.166-4.48,9.936-4.48c0.242,0,0.473,0.016,0.687,0.048c1.28,0.194,3.274,3.569,3.53,9.163
				C796.151,348.336,794.034,353.314,791.953,353.826z M803.361,335.045c-1.629-5.991-5.106-9.885-9.756-10.59
				c-0.634-0.096-1.293-0.145-1.959-0.145c-5.783,0-12.036,3.777-16.807,7.51c-1.674-0.654-3.486-1.028-5.391-1.028
				c-1.621,0-3.18,0.272-4.643,0.755c-4.723-3.642-10.811-7.236-16.453-7.236c-0.666,0-1.324,0.049-1.957,0.145
				c-4.649,0.705-8.129,4.599-9.758,10.59c-5.908-2.545-11.47-5.742-16.596-9.504c0.07-0.229,0.14-0.455,0.207-0.684
				c0.658-2.251-0.633-4.609-2.884-5.268c-1.354-0.396-2.743-0.076-3.781,0.726c-5.01-4.488-9.474-9.569-13.302-15.122
				c3.926,2.723,8.502,4.567,13.445,5.253l0.002,0.085c0.027,2.326,1.922,4.195,4.244,4.195c0.017,0,0.033,0,0.051,0
				c2.333-0.027,4.201-1.934,4.193-4.264c15.254-2.049,27.059-15.143,27.059-30.949c0-17.224-14.014-31.236-31.238-31.236
				c-15.581,0-28.533,11.467-30.862,26.405c-1.179-5.616-1.81-11.433-1.81-17.395c0-34.382,18.969-40.183,61.486-40.183
				c3.604,0,7.297,0.03,11.066,0.061c7.899,0.066,16.258,0.066,24.16,0c3.771-0.03,7.465-0.061,11.067-0.061
				c42.518,0,61.485,5.801,61.485,40.183C854.633,292.111,833.482,322.072,803.361,335.045z M862.369,293.119
				c-5.065,13.141-15.493,20.859-19.475,22.063c0-0.006-0.001-0.014-0.002-0.021c11.363-14.279,18.62-31.957,19.984-51.242
				C865.008,267.732,867.371,280.133,862.369,293.119z"/>
			<path fill="#D9C590" d="M689.695,352.672c-2.304,0-4.195-1.844-4.242-4.159c-0.049-2.345,1.813-4.284,4.157-4.331l0.388-0.01
				c2.328-0.073,4.299,1.774,4.369,4.119c0.068,2.344-1.777,4.3-4.12,4.369l-0.462,0.011
				C689.755,352.672,689.726,352.672,689.695,352.672z"/>
			<path fill="#D9C590" d="M704.874,342.058c-2.304,0-4.196-1.845-4.243-4.159c-0.047-2.345,1.814-4.284,4.158-4.332l0.388-0.01
				c2.327-0.072,4.3,1.775,4.368,4.12c0.068,2.343-1.775,4.3-4.119,4.368l-0.463,0.012
				C704.934,342.057,704.904,342.058,704.874,342.058z"/>
		</g>
	</g>
</g>
<g id="Calque_3">
	<rect fill="#D9C590" width="500" height="500"/>
	<g>
		<g>
			<circle id="XMLID_24_" fill="#7A1C22" cx="198.039" cy="279.514" r="14.011"/>
			<circle id="XMLID_23_" fill="#7A1C22" cx="301.96" cy="279.514" r="14.011"/>
			<path fill="#7A1C22" d="M153.668,360.42c-2.305,0-4.196-1.844-4.244-4.158c-0.048-2.345,1.813-4.283,4.158-4.332l0.387-0.01
				c2.329-0.072,4.3,1.775,4.369,4.119c0.068,2.345-1.776,4.3-4.12,4.369l-0.462,0.012
				C153.727,360.42,153.698,360.42,153.668,360.42z"/>
			<path fill="#7A1C22" d="M261.688,294.806c-2.191-4.806-9.923-4.01-11.688,1.526c-1.765-5.536-9.499-6.332-11.689-1.526
				c-3.664,8.04-7.571,6.44-7.571,6.44c13.407,5.703,18.055,2.836,19.26-0.293c1.206,3.129,5.853,5.996,19.258,0.293
				C269.259,301.246,265.352,302.846,261.688,294.806z"/>
			<path fill="#7A1C22" d="M345.592,255.23c-0.75-0.289-1.547-0.436-2.367-0.436c-0.046,0-0.092,0.01-0.138,0.012
				c-0.879-32.449-19.146-42.262-44.375-45.098V192.96l12.368-14.437v-23.045c3.109-1.559,5.249-4.768,5.249-8.483
				c0-5.243-4.25-9.495-9.495-9.495s-9.495,4.252-9.495,9.495c0,3.716,2.14,6.925,5.249,8.483v19.905l-12.367,14.435v19.191
				c-4.216-0.238-8.579-0.344-13.046-0.381v-31.284c3.11-1.56,5.25-4.769,5.25-8.483c0-5.244-4.251-9.495-9.496-9.495
				c-5.244,0-9.495,4.251-9.495,9.495c0,3.715,2.14,6.924,5.25,8.483v31.284c-2.198,0.012-4.417,0.027-6.672,0.047
				c-7.858,0.064-16.168,0.064-24.021,0c-3.793-0.031-7.511-0.063-11.137-0.063c-37.568,0-68.784,3.531-69.94,46.193
				c-0.046-0.002-0.092-0.012-0.138-0.012c-0.82,0-1.617,0.146-2.368,0.436c-7.783,3-11.461,23.393-4.699,40.942
				c6.509,16.89,21.122,27.667,28.321,27.667c0.948,0,1.835-0.156,2.637-0.465c0.912-0.352,1.673-0.871,2.313-1.521
				c9.13,9.471,20.238,17.019,32.657,21.968c0.162,8.166,3.301,16.506,10.38,18.251c1.154,0.284,2.376,0.428,3.633,0.428
				c0,0,0.001,0,0.001,0c4.369,0,8.806-1.74,12.617-3.885c2.13,1.184,4.577,1.863,7.182,1.863c2.828,0,5.463-0.809,7.715-2.188
				c3.935,2.291,8.599,4.209,13.187,4.209c1.256,0,2.479-0.144,3.633-0.428c7.078-1.745,10.218-10.082,10.38-18.247
				c12.42-4.949,23.528-12.498,32.657-21.971c0.639,0.649,1.4,1.169,2.312,1.521c0.802,0.309,1.688,0.465,2.636,0.465
				c0.001,0,0.001,0,0.002,0c7.2,0,21.812-10.777,28.32-27.668C357.054,278.623,353.376,258.23,345.592,255.23z M177.104,315.182
				c-3.981-1.205-14.409-8.924-19.473-22.063c-5.003-12.988-2.638-25.393-0.506-29.203c1.364,19.286,8.618,36.967,19.982,51.247
				C177.107,315.169,177.106,315.176,177.104,315.182z M175.293,279.514c0-12.542,10.204-22.744,22.746-22.744
				s22.746,10.202,22.746,22.744c0,12.543-10.204,22.746-22.746,22.746S175.293,292.057,175.293,279.514z M236.161,352.205
				c-2.223,1.068-4.489,1.804-6.511,1.804c-0.573,0-1.112-0.062-1.603-0.183c-2.081-0.512-4.198-5.49-3.909-11.813
				c0.255-5.594,2.249-8.969,3.53-9.163c0.214-0.032,0.445-0.048,0.686-0.048c2.58,0,5.946,1.7,9.217,3.972
				c-1.852,2.477-2.963,5.538-2.963,8.86C234.608,347.996,235.176,350.221,236.161,352.205z M249.466,352.191
				c-3.623,0-6.56-2.938-6.56-6.561c0-3.621,2.937-6.559,6.56-6.559c3.623,0,6.559,2.938,6.559,6.559
				C256.025,349.254,253.089,352.191,249.466,352.191z M271.954,353.826c-0.491,0.121-1.03,0.183-1.602,0.183
				c-2.308,0-4.908-0.935-7.403-2.234c0.855-1.874,1.346-3.948,1.346-6.14c0-3.096-0.956-5.971-2.583-8.352
				c3.493-2.522,7.167-4.48,9.936-4.48c0.242,0,0.473,0.016,0.687,0.048c1.28,0.194,3.275,3.569,3.53,9.163
				C276.151,348.336,274.034,353.314,271.954,353.826z M283.362,335.045c-1.629-5.991-5.107-9.885-9.757-10.59
				c-0.633-0.096-1.292-0.145-1.958-0.145c-5.783,0-12.036,3.777-16.806,7.51c-1.674-0.654-3.487-1.028-5.391-1.028
				c-1.622,0-3.181,0.272-4.643,0.755c-4.723-3.642-10.811-7.236-16.453-7.236c-0.666,0-1.325,0.049-1.958,0.145
				c-4.649,0.705-8.128,4.599-9.757,10.59c-5.909-2.545-11.47-5.742-16.596-9.504c0.07-0.229,0.14-0.455,0.207-0.684
				c0.658-2.251-0.633-4.609-2.883-5.268c-1.355-0.396-2.743-0.076-3.781,0.726c-5.01-4.488-9.474-9.569-13.302-15.122
				c3.926,2.723,8.501,4.567,13.445,5.253l0.001,0.085c0.027,2.326,1.923,4.195,4.244,4.195c0.017,0,0.034,0,0.051,0
				c2.333-0.027,4.202-1.934,4.193-4.264c15.254-2.049,27.059-15.143,27.059-30.949c0-17.224-14.014-31.236-31.238-31.236
				c-15.581,0-28.533,11.467-30.862,26.405c-1.178-5.616-1.81-11.433-1.81-17.395c0-34.382,18.968-40.183,61.486-40.183
				c3.604,0,7.297,0.03,11.067,0.061c7.899,0.066,16.257,0.066,24.16,0c3.771-0.03,7.465-0.061,11.067-0.061
				c42.518,0,61.485,5.801,61.485,40.183C334.633,292.111,313.483,322.072,283.362,335.045z M342.369,293.119
				c-5.065,13.141-15.493,20.859-19.474,22.063c0-0.006-0.001-0.014-0.002-0.021c11.363-14.279,18.62-31.957,19.984-51.242
				C345.008,267.732,347.371,280.133,342.369,293.119z"/>
			<path fill="#7A1C22" d="M169.695,352.672c-2.304,0-4.195-1.844-4.243-4.159c-0.048-2.345,1.814-4.284,4.158-4.331l0.388-0.01
				c2.328-0.073,4.299,1.774,4.369,4.119c0.068,2.344-1.776,4.3-4.12,4.369l-0.462,0.011
				C169.755,352.672,169.726,352.672,169.695,352.672z"/>
			<path fill="#7A1C22" d="M184.874,342.058c-2.304,0-4.196-1.845-4.243-4.159c-0.048-2.345,1.814-4.284,4.158-4.332l0.388-0.01
				c2.328-0.072,4.299,1.775,4.368,4.12c0.069,2.343-1.776,4.3-4.12,4.368l-0.462,0.012
				C184.934,342.057,184.904,342.058,184.874,342.058z"/>
		</g>
	</g>
</g>
</svg>
